/* XPM */
static char * leavesop_xpm[] = {
"64 64 156 2",
"  	c #006500",
". 	c #00CA00",
"+ 	c #00C900",
"@ 	c #00C800",
"# 	c #00BA00",
"$ 	c #004C00",
"% 	c #006900",
"& 	c #007400",
"* 	c #007900",
"= 	c #00D200",
"- 	c #00DA00",
"; 	c #00DB00",
"> 	c #00D900",
", 	c #00C100",
"' 	c #007300",
") 	c #008400",
"! 	c #009A00",
"~ 	c #009800",
"{ 	c #008900",
"] 	c #009300",
"^ 	c #009B00",
"/ 	c #008A00",
"( 	c #008500",
"_ 	c #008600",
": 	c #00BC00",
"< 	c #00C700",
"[ 	c #00CD00",
"} 	c #00CE00",
"| 	c #00AF00",
"1 	c #00B400",
"2 	c #00AB00",
"3 	c #006F00",
"4 	c #005500",
"5 	c #009100",
"6 	c #009500",
"7 	c #00BB00",
"8 	c #00B000",
"9 	c #008E00",
"0 	c #008D00",
"a 	c #006A00",
"b 	c #005400",
"c 	c #007800",
"d 	c #007A00",
"e 	c #009D00",
"f 	c #00B300",
"g 	c #00AE00",
"h 	c #00AA00",
"i 	c #00C200",
"j 	c #007500",
"k 	c #007600",
"l 	c #006800",
"m 	c #00D500",
"n 	c #00D800",
"o 	c #00D600",
"p 	c #00A300",
"q 	c #00A000",
"r 	c #00A500",
"s 	c #00A400",
"t 	c #00A100",
"u 	c #009E00",
"v 	c #00BE00",
"w 	c #00B100",
"x 	c #00A800",
"y 	c #00B900",
"z 	c #00A700",
"A 	c #006C00",
"B 	c #006E00",
"C 	c #003000",
"D 	c #006B00",
"E 	c #008F00",
"F 	c #00BF00",
"G 	c #006200",
"H 	c #004F00",
"I 	c #006000",
"J 	c #004800",
"K 	c #008100",
"L 	c #007E00",
"M 	c #007700",
"N 	c #004400",
"O 	c #008300",
"P 	c #00D400",
"Q 	c #00D300",
"R 	c #00A200",
"S 	c #009F00",
"T 	c #00AD00",
"U 	c #009900",
"V 	c #00C400",
"W 	c #00A900",
"X 	c #006D00",
"Y 	c #00B500",
"Z 	c #00B600",
"` 	c #00C000",
" .	c #008800",
"..	c #00AC00",
"+.	c #007F00",
"@.	c #006100",
"#.	c #005800",
"$.	c #005E00",
"%.	c #009000",
"&.	c #00C600",
"*.	c #006600",
"=.	c #008200",
"-.	c #007000",
";.	c #00CF00",
">.	c #00B200",
",.	c #005200",
"'.	c #00B800",
").	c #00BD00",
"!.	c #009200",
"~.	c #008C00",
"{.	c #009C00",
"].	c #00A600",
"^.	c #006700",
"/.	c #007B00",
"(.	c #00CC00",
"_.	c #007200",
":.	c #006400",
"<.	c #008000",
"[.	c #00D000",
"}.	c #009700",
"|.	c #005C00",
"1.	c #00B700",
"2.	c #009400",
"3.	c #009600",
"4.	c #00DD00",
"5.	c #00DE00",
"6.	c #007D00",
"7.	c #007C00",
"8.	c #008B00",
"9.	c #00CB00",
"0.	c #00D700",
"a.	c #008700",
"b.	c #003F00",
"c.	c #007100",
"d.	c #004E00",
"e.	c #00C300",
"f.	c #006300",
"g.	c #005A00",
"h.	c #00DC00",
"i.	c #004500",
"j.	c #005300",
"k.	c #00C500",
"l.	c #00D100",
"m.	c #005900",
"n.	c #005700",
"o.	c #005D00",
"p.	c #005600",
"q.	c #005100",
"r.	c #004700",
"s.	c #004200",
"t.	c #004600",
"u.	c #005F00",
"v.	c #004000",
"w.	c #002D00",
"x.	c #005B00",
"y.	c #004A00",
"  . . + + @ # $ %   & * = - ; > = , ' ) ! ~ { ] ^ / ( _ : : : . < [ [ [ [ } @ | 1 2 3 4 5 ( % = 6 7 8 9 @ 0 a ' b c d e f g h ^ ",
"' + @ @ < i j ) k l 9 m n - ; - > o ~ 0 p p q r s t u 0 ~ v 7 . w x f y , : z A / B C l D l [ , E F ( & G l c { d H I J K D L M ",
"l @ @ @ @ e N O d t P o - ; ; > Q o * R R u S z T s p U R u | y 9 y i V W ! ( X : Y ^ 5 Z w T 6 ) `  .) D ) M ..u +.@.#.O $.5 %.",
"( g @ &.| *.=.-.%.+.| ;.n - > n P > %.2 u 2 ^ 2 | 8 >.5 ,.^ E E '.'.v ).!.~.( {.6 , # ].^./. .O +.%.R '.F (.g O y ^ _._ +.9 !.w ",
"6 :.y e 9 1 v | ].<._ ~ ` n - n [.t x g ~ S }.u S ^ ~ {.|.k /.1.'.h w r /.e (.i x }.2., 3.#.5 0 j y } > 4.5.y # : Y X * B @.J $.",
"6.j 2.K F F ` i ! 7./.k 6.).6 }.8.! r W U R U e r t 2.S j +.t S ].q U ] j  .m 2 9.g u i Z +.'.^ w = 0.; ; 5.7 ( : 7 }.8...!._ a.",
"5 v ` ` v ` i i a.<.) 6.b.c.-.5 6.z  .X ~ r e 8...W F Y }.d.% M ,.^.' _ <.+.^ 2 m Q : ` y x Q ].e.- Q m P - V O : 7 f E y y >.& ",
"..e.e.e.v 7 F g ].x x t :.b 7.| q 2.f.<.S s R O x T @ &.W a.  ' g.8 ( 6 ~ ! ~.}.h | m >.0 h [.] [ > ; h.;.P a.  1.Z '.}.y : : L ",
"y i i i , 7 '.0 Z 8 T 8 * 6 '.1 Z   i.A : < ..! e.@ @ + '.3.j ,.j.s y Y ` i r ( z T + S =.k./.y @ m - ; U x ! ~ S ] 6 7._ : : / ",
": e., ` ` 7 g E 7 Z h K e 7 e.>.g k /.>.].| i p k.< @ k.>.F X a.6.'.: Y U ].>.S Y E ].~ : 2.6 ).).= n 0.U R f ` V 7 i t 3.) : 0 ",
": , 7 1 g 3.2./ / a.>.E ..i V : S =. .Z '.] z s : ` i : w 1.3 Z !.h ).{ S '.v ` e W | w @ s 8.` [.+ 9.).%.u V @ Q (.[.9.f a.7 7.",
"x T s {.~ O b 6.!.2.9 +.x k.k.k.g U | '.y r Y x 8 1 y # 1 v U = !.].1 a.p 7 ).6 <.^ s ).6 z { Y Z V x / u 6 y (.P . [.= l.2.m.n.",
"}.U ~ 3.= [._  .U e ^ ~.e.k.k.k.` t }.| p r &.p R f ` e.: ).A e.[.~ S r Z z 1.r 2.^ 6 9 ' F S {.<.3.& _ }./.+.).(.. ;.= = k.( N ",
"o o P P Q = } !.p q {.6 , &.&.< 2.R ].x Y 1.k.O 6.R @ . , , !.u s k.9 9 e ) E { r ) x L 2.# x K 7.( 9 / t p 2.O U } ;.= = [.S ~.",
"o Q = l.[ 9.< e t ^ {.x ).&.< e.8.M ( ).;.F ` {.*.8.).@ &.w 0 , ^._ }.{ B o.p.@.] ].g h  .S 3 +.r W W Y w F k.| }.).(.l.[.} W D ",
"3.{ } l.[.} + E ]  .g !.2 i k.6.!.D f.f [.y f u ^.D 6 h y ~ _ s -.}.~ q.m.7.@.r.-.!.s p ..7 e.a.6 ! p x @ y Z S K : # i # '.E $ ",
"s.|.# [.l.[.+ : 8._ | >._ p ! 0 g 6.7.z V e.S { G =.d E S E ).e G ~.~.b a.2 ] { 3., k.u t %.~.r 2.E W 8 Z >.: w 9 t ].' _.:.A =.",
"( *.k / @ ).^ <.:.f.~.e 8 >.{.F < F / 6.q s %.1 % 3._.t 0 / 8 5 ~.@ 1.t.* | s x k.V k.h f 2.t 1.^ p S w Z F r q 8.E 9 3 e {.q !.",
"w W 3.% %.) +.7.s ( & ~.h S k.9.9.9.k.6   +.R u * ' i.j ].f ^ 0 ~.< ) ' / K L x e.e.V W < Z ` < e.1 3.7 , 1 }.9 ) , ~ U >.1 w >.",
"1 >.r u.% _ f Y Z 1 O D u.q 9.9.9.(.(.+ 2.L G %.k ! g.K ~ }.:.] ~ 9 3 r T a.6 ..v !.}.) < 1.y , V F !.f 1 T {.{.!.<.a.t ..| >.1 ",
"Y w !.( ! E Z Y Y Z >.u.H e 9.9.(.(.[ + w W r ).r p _.<.j / g y ` >.Y ^ ~ U j.$.R o.~.A # ).r 8 1.Y 8.s p  ._ r 1.T =.K | >.f Y ",
"1 w _ L =.f Z Z Z Z ! c.j ~.@ 9.(.[ 9.# d 2.K j _.1. .U i @ . } [.[ [ ` u Y a v.I _ q 6.D .. .&.T | p 7 v s K ) 9 >.{.+.L Y 1 1 ",
"8 {.6 }.7.h %.~ p x ]._ y _ 7 + (.@ y r c 2 7.a.{.%.-.u } ;.;.l.l.[.;.7 l 0 E 3 {.1 v / 7.{ ~ u _  .R : r 3.x >...u , g }.K g >.",
"R {   w q +.a.] ! S E t V / g v y 2 c M +.!.~.] 9 ) _ < [ } [.l.l.l.= >.E h L 5 1 a.{.x | Y Y q 2.( 3.h =.6 : (.< w x 9.).( 3.S ",
"*.l !.s 3.B _ {.~ ~ D ^ f 8.] {.k :.K S u z z T x 9 k [ ;.[.;.l.= } 8 ! d O l /.O ~.1 ).F v v h !  .) a.|.c.` ;.} , >.].[ / +.' ",
"^ w.d.D ' 0 a 8.g 2 R ] {.!.3.3.d I 2.x z 8 f 1 >.r X }.5 ] l.= } z o.<.<.a %.f.x 7 ).7 y F F # ) ~ ~ 8 ^.-.u [.;.[ &.g ;.z { ..",
"V B o.* *.d / & ].v ` T ..6 k.< ~ 8...f ..| f 1 Y I K | h t ^ ~.4   :.u 1.g a.3 '.` ` : 7 ` ` 2 -./ <.+.A 2.) 1.. } } Y '.~.f + ",
"+ S b k ~ w 1.2.2 >.f )...2.&.k.2.8 >.g ..f w f 1 3.Z ).).y 1 >.9 ^.u ` < < 9 c : ` ` ).F ).y 8.f : W ] p e.E {.1 k.;.q w 5 2.. ",
". '.6.z )., i 8 : y 7 e.h < &. .! w Y >.>.| 1 K 5 y F F F F v ` v g O ~.< @ f d F , ` F i # 2 %.'.v f k ) p r e.U 2 {.S : x &.. ",
". '.y F e.k.< | i 7 i 1.@ @ i / R 1 f Y f | W a.Z F F F F F ` ` ` F 1 2.@ @ @ / v ` : 1.| ) X I 7 v ). .{.7 T e.e.3.t ].].x k.. ",
". ` w k.< + . t e.i i ~.@ < 1 -.  e 8.q U 9 $ +.w ).F F F F , , ` >.2.@ @ @ @ 0 p e t E x.y.o.c.@.{ { q : e.q , e.5 T >.1.T e.. ",
". [ [ [ [ } } e < e.8 * y 1.!.6 L   u.*.a.x.<.u.j ~ 8 ).` ` v # | u 0 + + + + r.|.j L #.j ~.(.: }.* s.1./ / D _ / @.g : : : : . ",
"< [ [ [ [ } @ | 1 2 3 4 5 ( % = 6 7 8 9 @ 0 a ' b c d e f g h ^   . . + + @ # $ %   & * = - ; > = , ' ) ! ~ { ] ^ / ( _ : : : . ",
"w x f y , : z A / B C l D l [ , E F ( & G l c { d H I J K D L M ' + @ @ < i j ) k l 9 m n - ; - > o ~ 0 p p q r s t u 0 ~ v 7 . ",
"9 y i V W ! ( X : Y ^ 5 Z w T 6 ) `  .) D ) M ..u +.@.#.O $.5 %.l @ @ @ @ e N O d t P o - ; ; > Q o * R R u S z T s p U R u | y ",
"'.'.v ).!.~.( {.6 , # ].^./. .O +.%.R '.F (.g O y ^ _._ +.9 !.w ( g @ &.| *.=.-.%.+.| ;.n - > n P > %.2 u 2 ^ 2 | 8 >.5 ,.^ E E ",
"'.h w r /.e (.i x }.2., 3.#.5 0 j y } > 4.5.y # : Y X * B @.J $.6 :.y e 9 1 v | ].<._ ~ ` n - n [.t x g ~ S }.u S ^ ~ {.|.k /.1.",
"].q U ] j  .m 2 9.g u i Z +.'.^ w = 0.; ; 5.7 ( : 7 }.8...!._ a.6.j 2.K F F ` i ! 7./.k 6.).6 }.8.! r W U R U e r t 2.S j +.t S ",
",.^.' _ <.+.^ 2 m Q : ` y x Q ].e.- Q m P - V O : 7 f E y y >.& 5 v ` ` v ` i i a.<.) 6.b.c.-.5 6.z  .X ~ r e 8...W F Y }.d.% M ",
"g.8 ( 6 ~ ! ~.}.h | m >.0 h [.] [ > ; h.;.P a.  1.Z '.}.y : : L ..e.e.e.v 7 F g ].x x t :.b 7.| q 2.f.<.S s R O x T @ &.W a.  ' ",
"j.s y Y ` i r ( z T + S =.k./.y @ m - ; U x ! ~ S ] 6 7._ : : / y i i i , 7 '.0 Z 8 T 8 * 6 '.1 Z   i.A : < ..! e.@ @ + '.3.j ,.",
"6.'.: Y U ].>.S Y E ].~ : 2.6 ).).= n 0.U R f ` V 7 i t 3.) : 0 : e., ` ` 7 g E 7 Z h K e 7 e.>.g k /.>.].| i p k.< @ k.>.F X a.",
"!.h ).{ S '.v ` e W | w @ s 8.` [.+ 9.).%.u V @ Q (.[.9.f a.7 7.: , 7 1 g 3.2./ / a.>.E ..i V : S =. .Z '.] z s : ` i : w 1.3 Z ",
"!.].1 a.p 7 ).6 <.^ s ).6 z { Y Z V x / u 6 y (.P . [.= l.2.m.n.x T s {.~ O b 6.!.2.9 +.x k.k.k.g U | '.y r Y x 8 1 y # 1 v U = ",
"[.~ S r Z z 1.r 2.^ 6 9 ' F S {.<.3.& _ }./.+.).(.. ;.= = k.( N }.U ~ 3.= [._  .U e ^ ~.e.k.k.k.` t }.| p r &.p R f ` e.: ).A e.",
"s k.9 9 e ) E { r ) x L 2.# x K 7.( 9 / t p 2.O U } ;.= = [.S ~.o o P P Q = } !.p q {.6 , &.&.< 2.R ].x Y 1.k.O 6.R @ . , , !.u ",
"^._ }.{ B o.p.@.] ].g h  .S 3 +.r W W Y w F k.| }.).(.l.[.} W D o Q = l.[ 9.< e t ^ {.x ).&.< e.8.M ( ).;.F ` {.*.8.).@ &.w 0 , ",
"-.}.~ q.m.7.@.r.-.!.s p ..7 e.a.6 ! p x @ y Z S K : # i # '.E $ 3.{ } l.[.} + E ]  .g !.2 i k.6.!.D f.f [.y f u ^.D 6 h y ~ _ s ",
"G ~.~.b a.2 ] { 3., k.u t %.~.r 2.E W 8 Z >.: w 9 t ].' _.:.A =.s.|.# [.l.[.+ : 8._ | >._ p ! 0 g 6.7.z V e.S { G =.d E S E ).e ",
"~.@ 1.t.* | s x k.V k.h f 2.t 1.^ p S w Z F r q 8.E 9 3 e {.q !.( *.k / @ ).^ <.:.f.~.e 8 >.{.F < F / 6.q s %.1 % 3._.t 0 / 8 5 ",
"~.< ) ' / K L x e.e.V W < Z ` < e.1 3.7 , 1 }.9 ) , ~ U >.1 w >.w W 3.% %.) +.7.s ( & ~.h S k.9.9.9.k.6   +.R u * ' i.j ].f ^ 0 ",
"~ 9 3 r T a.6 ..v !.}.) < 1.y , V F !.f 1 T {.{.!.<.a.t ..| >.1 1 >.r u.% _ f Y Z 1 O D u.q 9.9.9.(.(.+ 2.L G %.k ! g.K ~ }.:.] ",
"` >.Y ^ ~ U j.$.R o.~.A # ).r 8 1.Y 8.s p  ._ r 1.T =.K | >.f Y Y w !.( ! E Z Y Y Z >.u.H e 9.9.(.(.[ + w W r ).r p _.<.j / g y ",
"[.[ [ ` u Y a v.I _ q 6.D .. .&.T | p 7 v s K ) 9 >.{.+.L Y 1 1 1 w _ L =.f Z Z Z Z ! c.j ~.@ 9.(.[ 9.# d 2.K j _.1. .U i @ . } ",
"l.[.;.7 l 0 E 3 {.1 v / 7.{ ~ u _  .R : r 3.x >...u , g }.K g >.8 {.6 }.7.h %.~ p x ]._ y _ 7 + (.@ y r c 2 7.a.{.%.-.u } ;.;.l.",
"l.l.= >.E h L 5 1 a.{.x | Y Y q 2.( 3.h =.6 : (.< w x 9.).( 3.S R {   w q +.a.] ! S E t V / g v y 2 c M +.!.~.] 9 ) _ < [ } [.l.",
"= } 8 ! d O l /.O ~.1 ).F v v h !  .) a.|.c.` ;.} , >.].[ / +.' *.l !.s 3.B _ {.~ ~ D ^ f 8.] {.k :.K S u z z T x 9 k [ ;.[.;.l.",
"} z o.<.<.a %.f.x 7 ).7 y F F # ) ~ ~ 8 ^.-.u [.;.[ &.g ;.z { ..^ w.d.D ' 0 a 8.g 2 R ] {.!.3.3.d I 2.x z 8 f 1 >.r X }.5 ] l.= ",
"4   :.u 1.g a.3 '.` ` : 7 ` ` 2 -./ <.+.A 2.) 1.. } } Y '.~.f + V B o.* *.d / & ].v ` T ..6 k.< ~ 8...f ..| f 1 Y I K | h t ^ ~.",
"9 ^.u ` < < 9 c : ` ` ).F ).y 8.f : W ] p e.E {.1 k.;.q w 5 2.. + S b k ~ w 1.2.2 >.f )...2.&.k.2.8 >.g ..f w f 1 3.Z ).).y 1 >.",
"v g O ~.< @ f d F , ` F i # 2 %.'.v f k ) p r e.U 2 {.S : x &.. . '.6.z )., i 8 : y 7 e.h < &. .! w Y >.>.| 1 K 5 y F F F F v ` ",
"` F 1 2.@ @ @ / v ` : 1.| ) X I 7 v ). .{.7 T e.e.3.t ].].x k.. . '.y F e.k.< | i 7 i 1.@ @ i / R 1 f Y f | W a.Z F F F F F ` ` ",
"` >.2.@ @ @ @ 0 p e t E x.y.o.c.@.{ { q : e.q , e.5 T >.1.T e.. . ` w k.< + . t e.i i ~.@ < 1 -.  e 8.q U 9 $ +.w ).F F F F , , ",
"| u 0 + + + + r.|.j L #.j ~.(.: }.* s.1./ / D _ / @.g : : : : . . [ [ [ [ } } e < e.8 * y 1.!.6 L   u.*.a.x.<.u.j ~ 8 ).` ` v # "};
