/* XPM */
static char * walkstone_xpm[] = {
"64 64 394 2",
"  	c #AFAFAF",
". 	c #D2D2D2",
"+ 	c #B0B0B0",
"@ 	c #B5B6B6",
"# 	c #B8B8B8",
"$ 	c #B5B5B5",
"% 	c #B6B6B5",
"& 	c #AEAFAE",
"* 	c #9A9A9A",
"= 	c #8F8F8F",
"- 	c #A2A2A2",
"; 	c #A1A1A1",
"> 	c #9B9B9B",
", 	c #797979",
"' 	c #626262",
") 	c #5D5C5D",
"! 	c #868685",
"~ 	c #3C3C3C",
"{ 	c #6C6C6C",
"] 	c #B1B1B1",
"^ 	c #A6A6A6",
"/ 	c #6B6B6B",
"( 	c #606060",
"_ 	c #6D6D6D",
": 	c #6F6F70",
"< 	c #5C5D5D",
"[ 	c #D1D2D1",
"} 	c #D6D7D6",
"| 	c #7A7A7A",
"1 	c #C7C7C7",
"2 	c #585858",
"3 	c #959595",
"4 	c #9F9F9F",
"5 	c #BEBFBF",
"6 	c #BFBFBF",
"7 	c #595959",
"8 	c #505050",
"9 	c #4E4E4E",
"0 	c #777777",
"a 	c #939393",
"b 	c #616161",
"c 	c #676767",
"d 	c #838383",
"e 	c #898989",
"f 	c #848484",
"g 	c #A5A5A5",
"h 	c #A9A9A9",
"i 	c #A3A3A3",
"j 	c #757575",
"k 	c #818181",
"l 	c #767676",
"m 	c #686868",
"n 	c #434343",
"o 	c #424242",
"p 	c #ACACAC",
"q 	c #787878",
"r 	c #737373",
"s 	c #8A8A8A",
"t 	c #909090",
"u 	c #9E9E9E",
"v 	c #979797",
"w 	c #8C8C8C",
"x 	c #717171",
"y 	c #B2B2B2",
"z 	c #DFDFDF",
"A 	c #D8D8D7",
"B 	c #BBBBBB",
"C 	c #8C8C8B",
"D 	c #8E8E8D",
"E 	c #888888",
"F 	c #CACACA",
"G 	c #5E5E5D",
"H 	c #868686",
"I 	c #858585",
"J 	c #D4D5D5",
"K 	c #EEEEEE",
"L 	c #C9CACA",
"M 	c #B6B6B6",
"N 	c #4F4F4F",
"O 	c #AEAEAE",
"P 	c #D3D3D3",
"Q 	c #CECECE",
"R 	c #BEBEBE",
"S 	c #7D7D7D",
"T 	c #717272",
"U 	c #636363",
"V 	c #8E8E8E",
"W 	c #7E7E7E",
"X 	c #747474",
"Y 	c #727272",
"Z 	c #8B8B8B",
"` 	c #5C5C5C",
" .	c #353535",
"..	c #424142",
"+.	c #535355",
"@.	c #C6C6C6",
"#.	c #878787",
"$.	c #8E8D8E",
"%.	c #A4A4A4",
"&.	c #7F7F7E",
"*.	c #B4B4B4",
"=.	c #FCFCFC",
"-.	c #FAFAFA",
";.	c #D5D5D5",
">.	c #C7C8C7",
",.	c #C9CAC9",
"'.	c #BDBDBD",
").	c #C0C0C0",
"!.	c #7E7D7D",
"~.	c #646464",
"{.	c #6F6F6F",
"].	c #828282",
"^.	c #B9B9B9",
"/.	c #7B7B7B",
"(.	c #595957",
"_.	c #A0A09E",
":.	c #9C9C9C",
"<.	c #9D9D9D",
"[.	c #999999",
"}.	c #A8A8A8",
"|.	c #8F908F",
"1.	c #969696",
"2.	c #4C4C4C",
"3.	c #7F7F7F",
"4.	c #717070",
"5.	c #B7B7B7",
"6.	c #A7A7A7",
"7.	c #929292",
"8.	c #949595",
"9.	c #969797",
"0.	c #B3B3B3",
"a.	c #F6F6F6",
"b.	c #7F807F",
"c.	c #ADADAD",
"d.	c #A2A2A1",
"e.	c #818180",
"f.	c #808080",
"g.	c #B0B0B1",
"h.	c #515151",
"i.	c #989898",
"j.	c #6A6A6A",
"k.	c #9D9D9C",
"l.	c #656565",
"m.	c #696969",
"n.	c #525252",
"o.	c #B7B7B8",
"p.	c #89898B",
"q.	c #575757",
"r.	c #9C9B9B",
"s.	c #8A898A",
"t.	c #878687",
"u.	c #909091",
"v.	c #A4A4A5",
"w.	c #7C7D7D",
"x.	c #757676",
"y.	c #949494",
"z.	c #D7D7D6",
"A.	c #8D8D8D",
"B.	c #B8B7B7",
"C.	c #7C7C7C",
"D.	c #ABABAB",
"E.	c #8A8989",
"F.	c #9D9D9E",
"G.	c #D8D8D8",
"H.	c #555555",
"I.	c #484848",
"J.	c #565656",
"K.	c #E8E7E7",
"L.	c #E8E8E8",
"M.	c #ADAEAE",
"N.	c #D6D6D6",
"O.	c #D7D7D7",
"P.	c #7D7C7D",
"Q.	c #919191",
"R.	c #A6A7A6",
"S.	c #797A7A",
"T.	c #E1E1E1",
"U.	c #404040",
"V.	c #E5E5E5",
"W.	c #DBDBDC",
"X.	c #707071",
"Y.	c #AAAAAA",
"Z.	c #535353",
"`.	c #D9D9D9",
" +	c #7F7F80",
".+	c #939394",
"++	c #848585",
"@+	c #9D9E9E",
"#+	c #3F3F3F",
"$+	c #444444",
"%+	c #949394",
"&+	c #E7E7E7",
"*+	c #EDEDED",
"=+	c #A0A0A0",
"-+	c #3E3E3E",
";+	c #666666",
">+	c #C8C9C9",
",+	c #818081",
"'+	c #787777",
")+	c #C4C4C4",
"!+	c #E7E7E6",
"~+	c #2E2E2E",
"{+	c #CBCBCB",
"]+	c #494949",
"^+	c #D0D0D0",
"/+	c #B9B8B9",
"(+	c #707070",
"_+	c #545454",
":+	c #8F8F8E",
"<+	c #5A5A5A",
"[+	c #D4D4D4",
"}+	c #C9C9C9",
"|+	c #A5A5A6",
"1+	c #656464",
"2+	c #DEDFDE",
"3+	c #474747",
"4+	c #4A4A4A",
"5+	c #C2C2C2",
"6+	c #C3C3C3",
"7+	c #CCCCCC",
"8+	c #5B5B5B",
"9+	c #C6C7C6",
"0+	c #757475",
"a+	c #A5A4A5",
"b+	c #4B4B4B",
"c+	c #BABABA",
"d+	c #696868",
"e+	c #818080",
"f+	c #676969",
"g+	c #ACABAC",
"h+	c #C5C5C5",
"i+	c #737273",
"j+	c #BCBBBB",
"k+	c #828383",
"l+	c #828182",
"m+	c #9B9C9C",
"n+	c #727171",
"o+	c #8B8C8C",
"p+	c #C2C2C3",
"q+	c #D1D1D1",
"r+	c #939293",
"s+	c #3D3D3D",
"t+	c #BABBBB",
"u+	c #5C5C5B",
"v+	c #979897",
"w+	c #939593",
"x+	c #5D5D5D",
"y+	c #CFCFCF",
"z+	c #797978",
"A+	c #383838",
"B+	c #9E9D9D",
"C+	c #C0C1C1",
"D+	c #CDCDCD",
"E+	c #CFCFCD",
"F+	c #CFD0D0",
"G+	c #929293",
"H+	c #A0A0A1",
"I+	c #908F8F",
"J+	c #858485",
"K+	c #868586",
"L+	c #CFCECF",
"M+	c #D0D1D0",
"N+	c #6E6E6D",
"O+	c #898988",
"P+	c #6D6E6E",
"Q+	c #6C6C6D",
"R+	c #6E6E6F",
"S+	c #919190",
"T+	c #8E8D8D",
"U+	c #A7A8A7",
"V+	c #C8C8C8",
"W+	c #8A8A8B",
"X+	c #6A6969",
"Y+	c #706F6F",
"Z+	c #343434",
"`+	c #BCBCBC",
" @	c #979697",
".@	c #BFC0BF",
"+@	c #909190",
"@@	c #454545",
"#@	c #8E8E90",
"$@	c #ACACAA",
"%@	c #6E6E6E",
"&@	c #BABCBA",
"*@	c #F0F0F0",
"=@	c #DEDEDD",
"-@	c #9A9B9A",
";@	c #989897",
">@	c #7A7979",
",@	c #9A9B9B",
"'@	c #DFE0E0",
")@	c #C1C1C0",
"!@	c #BFBFC0",
"~@	c #939493",
"{@	c #A1A0A0",
"]@	c #D6D7D7",
"^@	c #BEBDBE",
"/@	c #D6D6D7",
"(@	c #848483",
"_@	c #DCDCDD",
":@	c #DADADA",
"<@	c #C1C1C1",
"[@	c #9FA09F",
"}@	c #A3A4A3",
"|@	c #9F9FA0",
"1@	c #767777",
"2@	c #C5C6C5",
"3@	c #B2B3B3",
"4@	c #BDBCBC",
"5@	c #BEBDBD",
"6@	c #525152",
"7@	c #9C9C9B",
"8@	c #BFBFBE",
"9@	c #A4A6A6",
"0@	c #D3D4D4",
"a@	c #F9F9F9",
"b@	c #A8A8A9",
"c@	c #8B8B8C",
"d@	c #959594",
"e@	c #5E5E5E",
"f@	c #9F9FA1",
"g@	c #606161",
"h@	c #5F5F5F",
"i@	c #3B3B3A",
"j@	c #DDDEDD",
"k@	c #B4B4B2",
"l@	c #848384",
"m@	c #99999A",
"n@	c #BEBFBE",
"o@	c #DCDCDC",
"p@	c #DDDDDD",
"q@	c #838384",
"r@	c #787978",
"s@	c #898A89",
"t@	c #ADACAC",
"u@	c #464646",
"v@	c #4A494A",
"w@	c #E6E6E6",
"x@	c #DBDCDB",
"y@	c #A7A7A6",
"z@	c #B0AFB0",
"A@	c #9E9E9D",
"B@	c #B2B3B2",
"C@	c #F1F1F1",
"D@	c #EBEBEB",
"E@	c #DEDEDE",
"F@	c #525251",
"G@	c #E3E3E3",
"H@	c #8E8F8E",
"I@	c #B7B7B6",
"J@	c #707171",
"K@	c #E2E2E2",
"L@	c #9C9A9A",
"M@	c #B5B6B5",
"N@	c #878786",
"O@	c #7B7B7A",
"P@	c #F3F3F3",
"Q@	c #9B9A9A",
"R@	c #999A9A",
"S@	c #DCDBDB",
"T@	c #8A8A89",
"U@	c #A1A1A2",
"V@	c #AEAFAF",
"W@	c #DCDDDD",
"X@	c #F8F8F8",
"Y@	c #858787",
"Z@	c #5E5D5E",
"`@	c #7E7D7E",
" #	c #5B5B5C",
".#	c #E4E4E4",
"+#	c #AFAFB0",
"@#	c #535354",
"##	c #A6A5A6",
"$#	c #414141",
"%#	c #C1C2C1",
"&#	c #6F7171",
"*#	c #727271",
"=#	c #A7A5A5",
"-#	c #B1B2B1",
";#	c #D3D3D1",
">#	c #626363",
",#	c #807F80",
"'#	c #B0B0AF",
")#	c #A2A3A2",
"!#	c #F5F5F5",
"~#	c #CBCCCB",
"{#	c #9A9C9A",
"]#	c #ECECEC",
"^#	c #848584",
"/#	c #C3C1C1",
"(#	c #A8A8A7",
"_#	c #8B8A8B",
":#	c #888989",
"<#	c #4B4B4A",
"  . + @   # $ % & * = - ; > , ' ) ! ~ { ] ^ / ' ( _ : < [ } | 1 + > 2 3 4 5 6 { 7 8 9 0 ~ a ^ b c d e f 3 g b h i j k l m n o b ",
"p q r s t u v > v w x y . z A B C D E F v ( G q 0 H e I J K L M $ k N e O . P Q R + S T m 3 q U k V V W H u X Y t Z `  ...+.H @.",
"#.$.%.h - u V = w &.n *.=.-.;.>.6 ,.'.).!.~.{.].I t = s ^.# - t + /.(.| k #.t _.:.g <.[.}.M H t * |.E j /.1.k 2.k V v 3.b 4.5.*.",
"<.a 6.h 7.8.S 9.Z W o 0.a.> w b.].i W c.d.x e.Z E #.#.f.g.p = h.i.w j.3 S E V k.H q S > . p [.* 1.V k Y l.0 m.n.}.o.*.p.q.r.K 6.",
"s.t.u.v.7.w.x.i.y.k n R z.A.H X r w /.].B.).C.j./.].e a D.c.E.n.V ^ E f.Y C.V 4 F.W / y G.i.1.a e #.Y n.H.I.J.3 F @.:.X d K.L.> ",
"f 3.{ l t s t M.6.H N N.O.P.q _ m H * Q.t F :.` c / t c.M # [.' f.R.M [.C.| I * 1.S.U T.+ i.Q.s d 0 ( h.U.l M P 5.| k 1.n.V.W.^ ",
"j _ X.l   O 6.Y.}.e Z.`.;.E  +, / s }.p m.h + q H - 5.M ^ :.6.I b v 6 $ D..+++@+w f V O.1.A.E I f.` #+$+%+&+*+=+s 7.%.%.-+O.. ^ ",
"1.l.;+0 V v <.D.6.k Z.P >+A.,+j ' S u - s {.y [.7.D.c.; V '+a H n.)+!+P . L ] $ 3 e 0.<.A.C.f.X l.~+N %.N.{+A.V u > g 7.]+# ^+Q ",
"^+/+; (+_+` #.t :+, <+[+}+s W { m | 7.[.= 2 |+=+1 Q - Z ].1+/.H _+2+D.1.A.[.- ).t Y 4 x ~._+9 I.3+4+| 5+:.s w Q.7.Z :.= 2 ] G.N.",
"5+c.6+7+R 3 X h.8+` b 1 9+H | (+0+f a a+i.b+u 1.D.G.c+S Y d+X e+h.{+g u 1.[.; i X r H W q C.Y j f+q 4 @.; l d E , C.E 3 N g+h+F ",
"i+(+t j+h+{+7+# Q.{.k # 0.k+s V a ; ^ ^ l+N - [.g )+:.m+W J.n+r n.h+[.y.o+a <.w _+(+d <.p+q+^.4 C.H 5 G.P R A.H d e w r+s+] @.:.",
"8+' j.X /.Z t+c.=+Q.v 0.- /.w > 4 Y.Y.4 m u+  v+s Q.A.e ] w+x+7 m y+3 w E E V z+A+l.7.^+O.y+B+S X k Y.C+D+E+F+R f W /.U <+B 5.;+",
"h.` m (+/., G+k q /.1.g 0 j V [.<.}.Y.H+/ S F O I+J+7.X ] + Y.u 4 ^+e e #.K+I  .2 , D.6 g > H #.Q.^ L+6 u 1.  M+Q ^.N+2.O+g i.8 ",
"P+c ~.( Q+R+A.s 3.l.4 0.] c.e A.7.1.:.Z | w y+7+S+T+= f i.f U+^.y+V+W+{.X+Y+Z+_+Z + h %.y.A.s > i ; }+6 '.%.f `+).# /.f i.p Z r ",
"0 l Y ' R+W <.; 3.J.Y.).z.6 O <.f  @:.#.H V .@F 7.7.+@w i =+w S y R Y.3.8 @@x+#@0.=+O 6 Q.e E ; 6.[.5.)+M V ;+u 5.$@^ [.A.# r (+",
"f.].w w = a > :.s %@&@L.*@=@h a k {.f X #.H p V+4 ^ -@e t y.4 ;@r V V q | X A.p y.[.] c+M 7.a - :.[.* c+[.j.X 7.6+3 t 1.* 5.0 x ",
">@E 3 ,@V t Z [.a x D+'@'.)@;.0.y.W Y ~.w 7.> }+1.* |.f.q e > [.d 2 r /.3.3 *.Q i H  @M !@y 3 v 1.i.y.- d <+A.[.Q ~@0 {@V+^./.' ",
"C.#.A.y.f f.f t a x h+]@}.6.Y.i R ^@O.G./@0.:.Q i.y.e | (@v u [.Y 3+H -   6 _@:@R E v # <@^.c+7.Z t v f.{ Y c.^.; v %.l 6+<@*.r ",
"e :.> v I X i.[@}@| c+# s y.|@<.%.<.'.$ V+%.V D.[.E | 1@A.p O > r ~.@.{+`+3.4 h+2@p 4 4 3@O 4@5@D.s f / 6@f 7@8@].f.M a E :.}.* ",
"++H e y.I f.=+9@* q 3 Q.V <.Z j 3.#.4 i.E y.w d $.C.0 f.u   M > A+e 0@a@; A.y.= 6 {+0.3 v i *.5.^.4 r J.%@i.Y.}+f.H h b@Z ].Q N.",
"Y.c@f.V 3 [.%.; 3 {.q f }.^ 0 r | I d@0 e@].= {.* y.7.f@c.g %.' <+B q+c+> [.4 ; t D+}+Q.E t h D.t f U Z 1.> + 4 A.a =++ %., g '@",
"y+S g@7 h@/ h@2 7 7 Y y 6+[.r ~.l.0 d / n a e S O+<.; i i.t w i@; j@^+y.[.y.[.k@y.a }+O l@k = a 0 7 1.B # p 4 m@7.7.1.^.}+$ k 6.",
"`.n@v w   6.A.q k ] Q o@p@q@m ` x+j A.r@4+M /.j x s@t@Z.u@A+v@I w@x@Q.s E 3.Q.y@[.x =+O z@E X j Z.d 0.# # V A@[.y.8.* B@^.=+Q._ ",
"C@&+h+<@y+F {+7+:@D@E@y+h+%@9 H.j.D %.].F@6.~.U 8+n.9 n.i.] `+^+G@6.H@s k x W 3 A.].%@3 I@6.h@8+=   R $ I Q.] %.i.[.u #.7.J@h.%@",
"K@v E 7.}.B 6 1 ^+# t > 5+- , :+- O h ].n.L@g u M@h+7+O.`.).y R 6+E s N@O@/ x d d d ].X - 0.3 s * `+P 3 f I *.O :.:.1.2 J.{.- P@",
"y.Q@s Z 4 y 5+<@D.R@s S %.;.4 c.).] E j _+a S@K@L.[+5.w C.f.E ] p #.T@w | j.| > T+H ].= { c+U@<.7.`+3 i.7.V ] $ t Z ' _+V@W@X@@.",
"e I l = 6.c+  i.i.Y@a ^ S :@`+H+g g Z@3+~.5.L.5.7.d f.j q W 4+%.6.f X f.C.`@1.D.v 7.#.Z  #6+5.*.^ ^+6.H k #.i {@3./.h@{ D+.#c+t ",
"_ j 0 I a E A.Z = f E +#i.i.`+0 w.@#j.##+ D+h [.:.[.* Q.e.0 $#S > 4 c (+S #.y.=+v H 0 l m.%#}+Z q Y.).)+* &#c f X e+(+;+V+V.D.j ",
"_ h@%@d l *#f #.H f Z # %.j.=#-## 6.&+1 p ;#0.w Z A.Z s y.a ;+>#1.h j.{ , ,#e = y.#.0 h.4 O.Y.C.* '#* * c+y =+u /.q r l <@:@6+}.",
"  )#E ].;+( _ f.e Z V D.3 _+* {+D@!#6 I j.'.N.v Z s H 3.E V ].n.).O q ;+l q e+A.Q.3.8+q ~#<@_ d - 4 4 c.K+f.- 6 {+O 7.S {#6.*.y ",
"*.}.y.Z ` $#J.0 Z ].c@1.H @@h O.@.3 I k m.u ]#{+d ^#f | I E e 8 D+/#E Z.H.8+Y+k k | n (#. s j.v %.> * 1.l h@%.h+1 c+a , s 1.v g ",
"6.* l y.W U { j X j k _#o / '.v j e Q.1.E ;+<.1 i.| #.f.#., E b 5.h+i :#{./ x+N @@9 _ + g q.j e E | S <##+k ] y.%@e@h@{.+ }.3.3 ",
"+ > 2 3 4 5 6 { 7 8 9 0 ~ a ^ b c d e f 3 g b h i j k l m n o b   . + @   # $ % & * = - ; > , ' ) ! ~ { ] ^ / ' ( _ : < [ } | 1 ",
"$ k N e O . P Q R + S T m 3 q U k V V W H u X Y t Z `  ...+.H @.p q r s t u v > v w x y . z A B C D E F v ( G q 0 H e I J K L M ",
"+ /.(.| k #.t _.:.g <.[.}.M H t * |.E j /.1.k 2.k V v 3.b 4.5.*.#.$.%.h - u V = w &.n *.=.-.;.>.6 ,.'.).!.~.{.].I t = s ^.# - t ",
"i.w j.3 S E V k.H q S > . p [.* 1.V k Y l.0 m.n.}.o.*.p.q.r.K 6.<.a 6.h 7.8.S 9.Z W o 0.a.> w b.].i W c.d.x e.Z E #.#.f.g.p = h.",
"V ^ E f.Y C.V 4 F.W / y G.i.1.a e #.Y n.H.I.J.3 F @.:.X d K.L.> s.t.u.v.7.w.x.i.y.k n R z.A.H X r w /.].B.).C.j./.].e a D.c.E.n.",
"f.R.M [.C.| I * 1.S.U T.+ i.Q.s d 0 ( h.U.l M P 5.| k 1.n.V.W.^ f 3.{ l t s t M.6.H N N.O.P.q _ m H * Q.t F :.` c / t c.M # [.' ",
"b v 6 $ D..+++@+w f V O.1.A.E I f.` #+$+%+&+*+=+s 7.%.%.-+O.. ^ j _ X.l   O 6.Y.}.e Z.`.;.E  +, / s }.p m.h + q H - 5.M ^ :.6.I ",
"n.)+!+P . L ] $ 3 e 0.<.A.C.f.X l.~+N %.N.{+A.V u > g 7.]+# ^+Q 1.l.;+0 V v <.D.6.k Z.P >+A.,+j ' S u - s {.y [.7.D.c.; V '+a H ",
"_+2+D.1.A.[.- ).t Y 4 x ~._+9 I.3+4+| 5+:.s w Q.7.Z :.= 2 ] G.N.^+/+; (+_+` #.t :+, <+[+}+s W { m | 7.[.= 2 |+=+1 Q - Z ].1+/.H ",
"h.{+g u 1.[.; i X r H W q C.Y j f+q 4 @.; l d E , C.E 3 N g+h+F 5+c.6+7+R 3 X h.8+` b 1 9+H | (+0+f a a+i.b+u 1.D.G.c+S Y d+X e+",
"n.h+[.y.o+a <.w _+(+d <.p+q+^.4 C.H 5 G.P R A.H d e w r+s+] @.:.i+(+t j+h+{+7+# Q.{.k # 0.k+s V a ; ^ ^ l+N - [.g )+:.m+W J.n+r ",
"m y+3 w E E V z+A+l.7.^+O.y+B+S X k Y.C+D+E+F+R f W /.U <+B 5.;+8+' j.X /.Z t+c.=+Q.v 0.- /.w > 4 Y.Y.4 m u+  v+s Q.A.e ] w+x+7 ",
"4 ^+e e #.K+I  .2 , D.6 g > H #.Q.^ L+6 u 1.  M+Q ^.N+2.O+g i.8 h.` m (+/., G+k q /.1.g 0 j V [.<.}.Y.H+/ S F O I+J+7.X ] + Y.u ",
"y+V+W+{.X+Y+Z+_+Z + h %.y.A.s > i ; }+6 '.%.f `+).# /.f i.p Z r P+c ~.( Q+R+A.s 3.l.4 0.] c.e A.7.1.:.Z | w y+7+S+T+= f i.f U+^.",
"y R Y.3.8 @@x+#@0.=+O 6 Q.e E ; 6.[.5.)+M V ;+u 5.$@^ [.A.# r (+0 l Y ' R+W <.; 3.J.Y.).z.6 O <.f  @:.#.H V .@F 7.7.+@w i =+w S ",
"r V V q | X A.p y.[.] c+M 7.a - :.[.* c+[.j.X 7.6+3 t 1.* 5.0 x f.].w w = a > :.s %@&@L.*@=@h a k {.f X #.H p V+4 ^ -@e t y.4 ;@",
"d 2 r /.3.3 *.Q i H  @M !@y 3 v 1.i.y.- d <+A.[.Q ~@0 {@V+^./.' >@E 3 ,@V t Z [.a x D+'@'.)@;.0.y.W Y ~.w 7.> }+1.* |.f.q e > [.",
"Y 3+H -   6 _@:@R E v # <@^.c+7.Z t v f.{ Y c.^.; v %.l 6+<@*.r C.#.A.y.f f.f t a x h+]@}.6.Y.i R ^@O.G./@0.:.Q i.y.e | (@v u [.",
"r ~.@.{+`+3.4 h+2@p 4 4 3@O 4@5@D.s f / 6@f 7@8@].f.M a E :.}.* e :.> v I X i.[@}@| c+# s y.|@<.%.<.'.$ V+%.V D.[.E | 1@A.p O > ",
"A+e 0@a@; A.y.= 6 {+0.3 v i *.5.^.4 r J.%@i.Y.}+f.H h b@Z ].Q N.++H e y.I f.=+9@* q 3 Q.V <.Z j 3.#.4 i.E y.w d $.C.0 f.u   M > ",
"<+B q+c+> [.4 ; t D+}+Q.E t h D.t f U Z 1.> + 4 A.a =++ %., g '@Y.c@f.V 3 [.%.; 3 {.q f }.^ 0 r | I d@0 e@].= {.* y.7.f@c.g %.' ",
"; j@^+y.[.y.[.k@y.a }+O l@k = a 0 7 1.B # p 4 m@7.7.1.^.}+$ k 6.y+S g@7 h@/ h@2 7 7 Y y 6+[.r ~.l.0 d / n a e S O+<.; i i.t w i@",
"w@x@Q.s E 3.Q.y@[.x =+O z@E X j Z.d 0.# # V A@[.y.8.* B@^.=+Q._ `.n@v w   6.A.q k ] Q o@p@q@m ` x+j A.r@4+M /.j x s@t@Z.u@A+v@I ",
"G@6.H@s k x W 3 A.].%@3 I@6.h@8+=   R $ I Q.] %.i.[.u #.7.J@h.%@C@&+h+<@y+F {+7+:@D@E@y+h+%@9 H.j.D %.].F@6.~.U 8+n.9 n.i.] `+^+",
"6+E s N@O@/ x d d d ].X - 0.3 s * `+P 3 f I *.O :.:.1.2 J.{.- P@K@v E 7.}.B 6 1 ^+# t > 5+- , :+- O h ].n.L@g u M@h+7+O.`.).y R ",
"p #.T@w | j.| > T+H ].= { c+U@<.7.`+3 i.7.V ] $ t Z ' _+V@W@X@@.y.Q@s Z 4 y 5+<@D.R@s S %.;.4 c.).] E j _+a S@K@L.[+5.w C.f.E ] ",
"6.f X f.C.`@1.D.v 7.#.Z  #6+5.*.^ ^+6.H k #.i {@3./.h@{ D+.#c+t e I l = 6.c+  i.i.Y@a ^ S :@`+H+g g Z@3+~.5.L.5.7.d f.j q W 4+%.",
"> 4 c (+S #.y.=+v H 0 l m.%#}+Z q Y.).)+* &#c f X e+(+;+V+V.D.j _ j 0 I a E A.Z = f E +#i.i.`+0 w.@#j.##+ D+h [.:.[.* Q.e.0 $#S ",
"1.h j.{ , ,#e = y.#.0 h.4 O.Y.C.* '#* * c+y =+u /.q r l <@:@6+}._ h@%@d l *#f #.H f Z # %.j.=#-## 6.&+1 p ;#0.w Z A.Z s y.a ;+>#",
").O q ;+l q e+A.Q.3.8+q ~#<@_ d - 4 4 c.K+f.- 6 {+O 7.S {#6.*.y   )#E ].;+( _ f.e Z V D.3 _+* {+D@!#6 I j.'.N.v Z s H 3.E V ].n.",
"D+/#E Z.H.8+Y+k k | n (#. s j.v %.> * 1.l h@%.h+1 c+a , s 1.v g *.}.y.Z ` $#J.0 Z ].c@1.H @@h O.@.3 I k m.u ]#{+d ^#f | I E e 8 ",
"5.h+i :#{./ x+N @@9 _ + g q.j e E | S <##+k ] y.%@e@h@{.+ }.3.3 6.* l y.W U { j X j k _#o / '.v j e Q.1.E ;+<.1 i.| #.f.#., E b "};
